<?xml version="1.0" encoding="utf-8"?>
<!-- Generator: Adobe Illustrator 24.0.3, SVG Export Plug-In . SVG Version: 6.00 Build 0)  -->
<svg version="1.1" id="Layer_1" xmlns="http://www.w3.org/2000/svg" xmlns:xlink="http://www.w3.org/1999/xlink" x="0px" y="0px"
	 viewBox="0 0 358.1 33.2" style="enable-background:new 0 0 358.1 33.2;" xml:space="preserve">
<style type="text/css">
	.st0{fill:#FFFFFF;}
</style>
<g>
	<path d="M46.1,0.4c0,10.7,0,21.4,0,32c-4.8,0-9.6,0-14.6,0c0-1.2-0.1-2.4,0-3.6c0.5-7.5,2.4-14.6,6.4-21.1C39.6,4.9,42,2.5,45,0.8
		C45.3,0.7,45.7,0.6,46.1,0.4z"/>
	<path d="M22.8,0.3c0.5,1.6,0.2,2.4-1.3,3c-4.1,1.5-5.7,5.2-6.3,9c-0.9,6.1-1.3,12.4-1.8,18.5c0,0.5,0,1,0,1.6c-1.3,0-2.4,0-3.5,0
		c-0.1-3.1-0.2-6.1-0.4-9.1C9,18.8,8.8,14.1,7.2,9.8C6.7,8.3,6,6.8,5,5.5c-0.8-1-2.1-1.9-3.3-2.4c-1.7-0.8-1.9-0.8-1.3-2.8
		C7.8,0.3,15.2,0.3,22.8,0.3z"/>
	<path d="M234.7,32.5c-1.3,0-2.3,0-3.5,0c-0.1-3-0.2-6-0.4-9c-0.3-4.7-0.5-9.3-2.1-13.8c-0.8-2.2-1.8-4.4-3.9-5.8
		c-0.6-0.4-1.3-0.7-2-0.9c-1.2-0.2-1.3-0.9-1.3-1.9c0.1-1.2,1-0.9,1.6-0.9c6.7,0,13.4,0,20,0c0.4,0,1.2,0.5,1.2,0.7
		c0,0.6-0.2,1.7-0.6,1.8c-4.6,1.6-6.5,5.3-7.1,9.6c-0.9,6.1-1.3,12.3-1.8,18.5C234.7,31.4,234.7,31.9,234.7,32.5z"/>
	<path d="M348.6,32.5c-1.4,0-2.5,0-3.7,0c-0.1-3-0.2-6-0.4-9c-0.3-4.6-0.5-9.1-2.1-13.5c-0.5-1.4-1.3-2.7-2-4
		c-0.9-1.6-2.3-2.6-4-2.9c-1.2-0.2-1.3-1-1.2-1.9c0.1-1.1,0.9-0.8,1.5-0.8c6.7,0,13.4,0,20,0c0.4,0,0.8,0,1.2,0.1
		c0.4,1.3,0.5,2.3-1.2,2.8c-4.2,1.5-5.7,5.2-6.4,9.1c-0.9,4.9-1.2,9.8-1.7,14.7C348.5,28.8,348.6,30.6,348.6,32.5z"/>
	<path d="M99.4,0.3c2.3-0.3,2.2-0.3,2.3,1.8c0.4,11.4,5.1,20.6,14.1,27.6c1,0.7,1.9,1.2,1.3,2.8c-5.8,0-11.7,0-17.7,0
		C99.4,21.8,99.4,11.1,99.4,0.3z"/>
	<path d="M134.9,16.6c0-4.8,0-9.6,0-14.4c0-1.3,0.4-1.8,1.8-1.8c4.3,0.1,8.6,0,12.9,0c0.4,0,0.9,0,1.3,0.1c0.4,0.1,0.7,0.4,1,0.6
		c-0.3,0.3-0.5,0.7-0.8,0.9c-1.4,0.7-2.9,1.2-4.2,1.9c-2.9,1.5-5.6,3.4-7.7,5.9c-3.1,3.7-3.2,8.7-0.5,12.6c2.9,4.3,7.1,6.6,11.8,8.3
		c0.5,0.2,0.9,0.8,1.3,1.2c-0.5,0.3-1,0.8-1.4,0.8c-4.7,0.1-9.5,0.1-14.2,0.1c-1,0-1.3-0.5-1.3-1.5c0.1-2.5,0-5,0-7.4
		C134.9,21.4,134.9,19,134.9,16.6C134.9,16.6,134.9,16.6,134.9,16.6z"/>
	<path d="M262.4,16.6c0-4.9,0-9.8,0-14.7c0-1.1,0.3-1.6,1.5-1.6c4.6,0,9.3,0,13.9,0c0.2,0,0.5,0,0.7,0.1c0.3,0.2,0.6,0.4,1,0.6
		c-0.2,0.3-0.4,0.6-0.7,0.8c-3,1.7-6.1,3.1-9,5c-3.5,2.3-5.7,5.6-5.6,10c0.1,2.9,1.6,5.2,3.4,7.4c2.8,3.3,6.5,5.1,10.5,6.5
		c0.7,0.2,1.5,0.3,1.2,1.2c-0.1,0.4-0.9,0.8-1.4,0.8c-4.7,0.1-9.5,0-14.2,0.1c-1,0-1.3-0.4-1.3-1.4
		C262.4,26.4,262.4,21.5,262.4,16.6C262.4,16.6,262.4,16.6,262.4,16.6z"/>
	<path d="M64.8,7.9c0-2.2,0-4.5,0-6.7c0-0.9,0.3-1.2,1.2-1.2c3.9,0.3,7.9,0.5,11.6,2.2c2.9,1.3,4.4,3.5,4.2,6.2
		c-0.2,2.9-1.9,4.9-4.6,5.6c-3.7,0.9-7.6,1.2-11.4,1.8c-0.9,0.1-1-0.4-1-1.2C64.8,12.4,64.8,10.1,64.8,7.9
		C64.8,7.9,64.8,7.9,64.8,7.9z"/>
	<path d="M67.1,33.2c-2.3-0.2-2.2-0.2-2.2-2.4c0-4,0-8.1-0.1-12.1c0-1.2,0.3-1.7,1.5-1.6c3.8,0.4,7.7,0.6,11.3,2.2
		c2.9,1.3,4.4,3.4,4.2,6.2c-0.2,2.9-1.9,4.8-4.6,5.6C73.9,32,70.5,32.5,67.1,33.2z"/>
	<path d="M319.4,32.7c-1.2,0-2.3,0-3.4,0c-5.8,0-11.6,0-17.4,0c-1.1,0-1.4-0.2-1-1.3c1.8-5.3,5.2-9.5,9.5-12.9
		c0.8-0.6,1.7-0.7,2.6-0.1c4.6,3.6,8.1,8,9.8,13.6C319.5,32.1,319.4,32.3,319.4,32.7z"/>
	<path d="M319.8,0.6c-1,2.2-1.8,4.3-3,6.2c-1.8,3.1-4.4,5.7-7.2,7.9c-0.7,0.5-1.3,0.9-2.2,0.2c-4.5-3.6-8.1-7.8-9.9-13.4
		c-0.3-0.9-0.2-1.3,0.8-1.2c6.8,0,13.6,0,20.3,0C318.9,0.4,319.1,0.5,319.8,0.6z"/>
	<path d="M276.1,13.3c0,1.7,0.1,3.3,0,4.9c0,0.3-0.7,0.9-0.9,0.9c-2.2-0.4-4.5-0.9-6.7-1.5c-0.4-0.1-1-0.8-0.9-1.2
		c0.1-0.5,0.6-1.2,1.1-1.4c1.8-0.6,3.6-1.1,5.4-1.5C274.7,13.4,275.3,13.4,276.1,13.3z"/>
	<path d="M148.6,13.4c0,1.8,0.1,3.3,0,4.8c0,0.3-0.7,0.9-0.9,0.9c-2.2-0.4-4.5-0.9-6.7-1.5c-0.4-0.1-0.9-0.8-0.9-1.2
		c0.1-0.5,0.5-1.1,1-1.3c1.8-0.6,3.7-1.1,5.6-1.6C147.2,13.5,147.8,13.5,148.6,13.4z"/>
	<path d="M173.6,0.3c0,11,0,21.8,0,32.7c8.5,0,16.8,0,25.3,0c0-11,0-21.8,0-32.7C190.4,0.3,182,0.3,173.6,0.3z"/>
</g>
<path class="st0" d="M193.5,27.5c-4.8,0-9.6,0-14.5,0c0-1.3,0-2.5,0-3.8c4.8,0,9.6,0,14.5,0C193.5,25,193.5,26.2,193.5,27.5z"/>
<path class="st0" d="M192.5,16.6c-0.9,1-2.3,2-3.7,2.6c-3.2,1.5-6.2,2.2-9.8,3.4c0-3,0-5.9,0-8.8c0-2.9,0-5.9,0-8.8
	c0.8,0.1,1.5,0.2,2.2,0.4c3.3,0.9,6.7,1.7,9.5,3.8c0.8,0.6,1.5,1.3,2,2.1C194.1,13.1,194.1,14.9,192.5,16.6z"/>
</svg>
